<svg width="14" height="14" viewBox="0 0 14 14" fill="none" xmlns="http://www.w3.org/2000/svg">
<path d="M4.8125 11.8125C5.05412 11.8125 5.25 11.6166 5.25 11.375C5.25 11.1334 5.05412 10.9375 4.8125 10.9375C4.57088 10.9375 4.375 11.1334 4.375 11.375C4.375 11.6166 4.57088 11.8125 4.8125 11.8125Z" stroke="#F1F1F2" stroke-width="0.875" stroke-linecap="round" stroke-linejoin="round"/>
<path d="M10.9375 11.8125C11.1791 11.8125 11.375 11.6166 11.375 11.375C11.375 11.1334 11.1791 10.9375 10.9375 10.9375C10.6959 10.9375 10.5 11.1334 10.5 11.375C10.5 11.6166 10.6959 11.8125 10.9375 11.8125Z" stroke="#F1F1F2" stroke-width="0.875" stroke-linecap="round" stroke-linejoin="round"/>
<path d="M1.3125 2.1875H3.0625L4.375 9.625H11.375" stroke="#F1F1F2" stroke-width="0.875" stroke-linecap="round" stroke-linejoin="round"/>
<path d="M4.375 7.875H11.1956C11.2462 7.87504 11.2953 7.85753 11.3344 7.82548C11.3735 7.79342 11.4003 7.74879 11.4103 7.69918L12.1978 3.76168C12.2041 3.72993 12.2034 3.69716 12.1955 3.66575C12.1877 3.63433 12.1729 3.60505 12.1524 3.58002C12.1319 3.55498 12.106 3.53482 12.0768 3.52098C12.0475 3.50714 12.0155 3.49998 11.9831 3.5H3.5" stroke="#F1F1F2" stroke-width="0.875" stroke-linecap="round" stroke-linejoin="round"/>
</svg>
