<svg width="19" height="14" viewBox="0 0 19 14" fill="none" xmlns="http://www.w3.org/2000/svg">
<path d="M18.0181 6.60156C17.2226 3.00548 16.0256 1.08612 14.2499 0.561842C13.8766 0.452353 13.4894 0.397654 13.1004 0.399457C12.5863 0.399457 12.1385 0.524714 11.6648 0.657472C11.094 0.817606 10.4456 0.999492 9.5002 0.999492C8.55478 0.999492 7.90599 0.817981 7.33408 0.657847C6.86005 0.524714 6.41265 0.399457 5.9 0.399457C5.49776 0.398062 5.09728 0.452587 4.71005 0.561467C2.9437 1.0835 1.74738 3.00211 0.940337 6.59931C0.0725368 10.4703 0.499686 12.9143 2.13816 13.4813C2.36275 13.5605 2.59906 13.6013 2.8372 13.6021C3.95964 13.6021 4.85969 12.6672 5.47472 11.9017C6.16964 11.0354 6.98306 10.5959 9.5002 10.5959C11.7485 10.5959 12.6789 10.9008 13.4826 11.9017C13.9877 12.531 14.4651 12.9713 14.9414 13.2484C15.5748 13.6167 16.2078 13.6985 16.8225 13.4873C17.7908 13.1569 18.3458 12.2835 18.4726 10.8907C18.569 9.82262 18.4205 8.41967 18.0181 6.60156ZM7.7001 6.3998H6.50003V7.59987C6.50003 7.75901 6.43681 7.91163 6.32429 8.02416C6.21176 8.13669 6.05914 8.19991 5.9 8.19991C5.74086 8.19991 5.58824 8.13669 5.47571 8.02416C5.36318 7.91163 5.29996 7.75901 5.29996 7.59987V6.3998H4.09989C3.94075 6.3998 3.78813 6.33658 3.67561 6.22406C3.56308 6.11153 3.49986 5.95891 3.49986 5.79977C3.49986 5.64063 3.56308 5.48801 3.67561 5.37548C3.78813 5.26295 3.94075 5.19973 4.09989 5.19973H5.29996V3.99966C5.29996 3.84053 5.36318 3.6879 5.47571 3.57538C5.58824 3.46285 5.74086 3.39963 5.9 3.39963C6.05914 3.39963 6.21176 3.46285 6.32429 3.57538C6.43681 3.6879 6.50003 3.84053 6.50003 3.99966V5.19973H7.7001C7.85924 5.19973 8.01186 5.26295 8.12439 5.37548C8.23692 5.48801 8.30014 5.64063 8.30014 5.79977C8.30014 5.95891 8.23692 6.11153 8.12439 6.22406C8.01186 6.33658 7.85924 6.3998 7.7001 6.3998ZM10.8503 6.54981C10.7019 6.54981 10.5569 6.50582 10.4336 6.42341C10.3102 6.34099 10.2141 6.22385 10.1573 6.0868C10.1006 5.94974 10.0857 5.79894 10.1147 5.65344C10.1436 5.50795 10.215 5.3743 10.3199 5.26941C10.4248 5.16451 10.5585 5.09308 10.704 5.06414C10.8495 5.0352 11.0003 5.05005 11.1373 5.10682C11.2744 5.16359 11.3915 5.25972 11.4739 5.38307C11.5563 5.50641 11.6003 5.65142 11.6003 5.79977C11.6003 5.99869 11.5213 6.18947 11.3806 6.33013C11.24 6.47079 11.0492 6.54981 10.8503 6.54981ZM12.5004 8.19991C12.352 8.1999 12.2069 8.15587 12.0835 8.07337C11.9601 7.99087 11.864 7.87362 11.8073 7.73646C11.7505 7.5993 11.7358 7.44839 11.7649 7.30285C11.794 7.1573 11.8656 7.02366 11.9707 6.91884C12.0758 6.81402 12.2096 6.74273 12.3552 6.714C12.5008 6.68528 12.6517 6.7004 12.7887 6.75745C12.9257 6.81451 13.0427 6.91094 13.1249 7.03453C13.2071 7.15812 13.2508 7.30331 13.2504 7.45174C13.2499 7.65034 13.1707 7.84063 13.0301 7.98089C12.8895 8.12114 12.699 8.19991 12.5004 8.19991ZM12.5004 4.89972C12.352 4.89972 12.207 4.85573 12.0837 4.77331C11.9603 4.6909 11.8642 4.57375 11.8074 4.4367C11.7507 4.29965 11.7358 4.14884 11.7647 4.00335C11.7937 3.85785 11.8651 3.72421 11.97 3.61931C12.0749 3.51442 12.2086 3.44298 12.3541 3.41404C12.4995 3.3851 12.6504 3.39995 12.7874 3.45672C12.9245 3.51349 13.0416 3.60963 13.124 3.73297C13.2064 3.85632 13.2504 4.00133 13.2504 4.14967C13.2504 4.3486 13.1714 4.53937 13.0307 4.68003C12.8901 4.82069 12.6993 4.89972 12.5004 4.89972ZM14.1505 6.54981C14.0021 6.54981 13.8571 6.50582 13.7338 6.42341C13.6104 6.34099 13.5143 6.22385 13.4575 6.0868C13.4008 5.94974 13.3859 5.79894 13.4148 5.65344C13.4438 5.50795 13.5152 5.3743 13.6201 5.26941C13.725 5.16451 13.8587 5.09308 14.0041 5.06414C14.1496 5.0352 14.3004 5.05005 14.4375 5.10682C14.5746 5.16359 14.6917 5.25972 14.7741 5.38307C14.8565 5.50641 14.9005 5.65142 14.9005 5.79977C14.9005 5.99869 14.8215 6.18947 14.6808 6.33013C14.5402 6.47079 14.3494 6.54981 14.1505 6.54981Z" fill="#5B58EB"/>
</svg>
