<svg width="288" height="512" viewBox="0 0 288 512" fill="none" xmlns="http://www.w3.org/2000/svg">
<g clip-path="url(#clip0_4947_4)">
<path d="M286.1 358.1C277.2 407.8 235.4 439.4 176 446.4V480C176 497.67 161.72 512 144.04 512C126.36 512 112 497.7 112 480V445.04C111.556 444.976 111.164 445.009 110.719 444.942C84.529 441.176 57.0288 431.742 32.7788 423.412L21.7488 419.646C5.02977 414 -3.97023 395.8 1.68977 379.1C7.34977 362.4 25.5698 353.37 42.2498 359.02L53.5598 362.879C75.1498 370.285 99.59 378.689 119.97 381.609C167.06 388.562 217.03 380.765 223.07 347.519C228.258 318.969 211.91 307.629 135.54 286.819L120.5 282.7C76.5898 270.4 -14.7503 244.9 1.96977 153C10.8198 104.1 52.4398 72.48 112 65.51V32C112 14.33 126.33 0 144.02 0C161.71 0 176 14.33 176 32V66.95C176.441 67.0125 176.84 66.9949 177.281 67.0613C194.191 69.5923 213.501 74.5303 238.001 82.6113C254.811 88.1423 263.941 106.221 258.411 123.021C252.88 139.791 234.721 148.881 218.001 143.401C197.281 136.589 180.881 132.321 167.841 130.381C121 123.4 70.9698 131.2 64.9098 164.5C60.4998 188.8 69.6598 202 137.8 221L152.39 225.016C212.3 241.4 302.9 266.1 286.1 358.1Z" fill="#5B58EB"/>
</g>
<defs>
<clipPath id="clip0_4947_4">
<rect width="288" height="512" fill="white"/>
</clipPath>
</defs>
</svg>
