<svg width="13" height="11" viewBox="0 0 13 11" fill="none" xmlns="http://www.w3.org/2000/svg">
<path d="M12.1654 5.30761C11.6725 3.07955 10.9416 1.65828 9.76994 1.31194C9.54303 1.24575 9.30773 1.21272 9.07136 1.2139C8.35108 1.2139 7.78269 1.64248 6.4999 1.64248C5.21712 1.64248 4.64765 1.2139 3.92845 1.2139C3.68222 1.21263 3.43701 1.24562 3.19987 1.31194C2.02664 1.65828 1.30181 3.08089 0.803325 5.30761C0.294391 7.58201 0.386534 9.37908 1.38137 9.72408C2.0778 9.96516 2.70058 9.46667 3.2904 8.733C3.96006 7.89728 4.7848 7.64013 6.4999 7.64013C8.21501 7.64013 9.00761 7.89728 9.67833 8.733C10.2676 9.46721 10.9134 9.95953 11.5914 9.72837C12.6901 9.3531 12.6746 7.60879 12.1654 5.30761Z" stroke="#82828A" stroke-width="0.857171" stroke-miterlimit="10"/>
<path d="M7.46443 5.17886C7.7603 5.17886 8.00015 4.93901 8.00015 4.64314C8.00015 4.34727 7.7603 4.10742 7.46443 4.10742C7.16856 4.10742 6.92871 4.34727 6.92871 4.64314C6.92871 4.93901 7.16856 5.17886 7.46443 5.17886Z" fill="#82828A"/>
<path d="M8.64314 6.3566C8.53713 6.3566 8.4335 6.32514 8.34537 6.26622C8.25724 6.20729 8.18858 6.12355 8.14807 6.02558C8.10757 5.92761 8.09703 5.81983 8.11781 5.71587C8.13859 5.61191 8.18975 5.51646 8.26481 5.44159C8.33986 5.36672 8.43544 5.31581 8.53945 5.29529C8.64346 5.27477 8.75122 5.28557 8.84908 5.32632C8.94695 5.36707 9.03052 5.43595 9.08923 5.52422C9.14793 5.6125 9.17913 5.7162 9.17886 5.82222C9.17851 5.96407 9.12191 6.09998 9.02148 6.20016C8.92105 6.30034 8.78499 6.3566 8.64314 6.3566Z" fill="#82828A"/>
<path d="M8.64314 4.00015C8.93901 4.00015 9.17886 3.7603 9.17886 3.46443C9.17886 3.16856 8.93901 2.92871 8.64314 2.92871C8.34727 2.92871 8.10742 3.16856 8.10742 3.46443C8.10742 3.7603 8.34727 4.00015 8.64314 4.00015Z" fill="#82828A"/>
<path d="M9.82185 5.17886C10.1177 5.17886 10.3576 4.93901 10.3576 4.64314C10.3576 4.34727 10.1177 4.10742 9.82185 4.10742C9.52598 4.10742 9.28613 4.34727 9.28613 4.64314C9.28613 4.93901 9.52598 5.17886 9.82185 5.17886Z" fill="#82828A"/>
<path d="M3.92879 3.35742V5.92888M5.21452 4.64315H2.64307" stroke="#82828A" stroke-width="0.857171" stroke-linecap="round" stroke-linejoin="round"/>
</svg>
