<svg width="13" height="11" viewBox="0 0 13 11" fill="none" xmlns="http://www.w3.org/2000/svg">
<path d="M8 8V9.25C8 9.58152 7.8683 9.89946 7.63388 10.1339C7.39946 10.3683 7.08152 10.5 6.75 10.5H1.75C1.41848 10.5 1.10054 10.3683 0.866117 10.1339C0.631696 9.89946 0.5 9.58152 0.5 9.25V1.75C0.5 1.41848 0.631696 1.10054 0.866117 0.866117C1.10054 0.631696 1.41848 0.5 1.75 0.5H6.5C7.19031 0.5 8 1.05969 8 1.75V3M10 8L12.5 5.5L10 3M4 5.5H12" stroke="#82828A" stroke-linecap="round" stroke-linejoin="round"/>
</svg>
