<svg width="93" height="30" viewBox="0 0 93 30" fill="none" xmlns="http://www.w3.org/2000/svg">
<path d="M22.6466 14.5022C21.6524 10.0074 20.1561 7.60834 17.9366 6.95302C17.47 6.81617 16.9861 6.7478 16.4999 6.75005C15.8572 6.75005 15.2975 6.90662 14.7055 7.07255C13.992 7.27271 13.1816 7.50005 11.9999 7.50005C10.8181 7.50005 10.0072 7.27318 9.29235 7.07302C8.69985 6.90662 8.14063 6.75005 7.49985 6.75005C6.99708 6.74831 6.49651 6.81646 6.01251 6.95255C3.8047 7.60505 2.30938 10.0032 1.30063 14.4994C0.215946 19.3379 0.749852 22.3927 2.79782 23.1015C3.07855 23.2004 3.37392 23.2514 3.67157 23.2524C5.07454 23.2524 6.19954 22.0838 6.96829 21.1271C7.83688 20.0443 8.8536 19.4949 11.9999 19.4949C14.81 19.4949 15.973 19.876 16.9775 21.1271C17.6089 21.9136 18.2056 22.464 18.8009 22.8104C19.5927 23.2707 20.3839 23.3729 21.1522 23.109C22.3625 22.696 23.0563 21.6043 23.2147 19.8633C23.3352 18.5283 23.1495 16.7747 22.6466 14.5022ZM9.74985 14.2501H8.24985V15.7501C8.24985 15.949 8.17083 16.1397 8.03018 16.2804C7.88953 16.421 7.69876 16.5001 7.49985 16.5001C7.30094 16.5001 7.11017 16.421 6.96952 16.2804C6.82887 16.1397 6.74985 15.949 6.74985 15.7501V14.2501H5.24985C5.05094 14.2501 4.86017 14.171 4.71952 14.0304C4.57887 13.8897 4.49985 13.699 4.49985 13.5001C4.49985 13.3011 4.57887 13.1104 4.71952 12.9697C4.86017 12.8291 5.05094 12.7501 5.24985 12.7501H6.74985V11.2501C6.74985 11.0511 6.82887 10.8604 6.96952 10.7197C7.11017 10.5791 7.30094 10.5001 7.49985 10.5001C7.69876 10.5001 7.88953 10.5791 8.03018 10.7197C8.17083 10.8604 8.24985 11.0511 8.24985 11.2501V12.7501H9.74985C9.94876 12.7501 10.1395 12.8291 10.2802 12.9697C10.4208 13.1104 10.4999 13.3011 10.4999 13.5001C10.4999 13.699 10.4208 13.8897 10.2802 14.0304C10.1395 14.171 9.94876 14.2501 9.74985 14.2501ZM13.6874 14.4376C13.5019 14.4376 13.3207 14.3826 13.1665 14.2796C13.0123 14.1765 12.8922 14.0301 12.8212 13.8588C12.7503 13.6875 12.7317 13.499 12.7679 13.3172C12.804 13.1353 12.8933 12.9683 13.0244 12.8371C13.1556 12.706 13.3226 12.6167 13.5045 12.5806C13.6863 12.5444 13.8748 12.563 14.0461 12.6339C14.2174 12.7049 14.3638 12.825 14.4669 12.9792C14.5699 13.1334 14.6249 13.3146 14.6249 13.5001C14.6249 13.7487 14.5261 13.9872 14.3503 14.163C14.1745 14.3388 13.936 14.4376 13.6874 14.4376ZM15.7499 16.5001C15.5643 16.5001 15.383 16.445 15.2288 16.3419C15.0745 16.2388 14.9544 16.0922 14.8835 15.9208C14.8126 15.7493 14.7942 15.5607 14.8305 15.3788C14.8669 15.1969 14.9564 15.0298 15.0878 14.8988C15.2191 14.7678 15.3864 14.6787 15.5684 14.6428C15.7504 14.6069 15.939 14.6258 16.1102 14.6971C16.2815 14.7684 16.4278 14.8889 16.5305 15.0434C16.6332 15.1979 16.6878 15.3794 16.6874 15.5649C16.6867 15.8131 16.5877 16.051 16.4119 16.2263C16.2362 16.4016 15.9981 16.5001 15.7499 16.5001ZM15.7499 12.3751C15.5644 12.3751 15.3832 12.3201 15.229 12.2171C15.0748 12.114 14.9547 11.9676 14.8837 11.7963C14.8128 11.625 14.7942 11.4365 14.8304 11.2547C14.8665 11.0728 14.9558 10.9058 15.0869 10.7746C15.2181 10.6435 15.3851 10.5542 15.567 10.5181C15.7488 10.4819 15.9373 10.5005 16.1086 10.5714C16.2799 10.6424 16.4263 10.7625 16.5294 10.9167C16.6324 11.0709 16.6874 11.2521 16.6874 11.4376C16.6874 11.6862 16.5886 11.9247 16.4128 12.1005C16.237 12.2763 15.9985 12.3751 15.7499 12.3751ZM17.8124 14.4376C17.6269 14.4376 17.4457 14.3826 17.2915 14.2796C17.1373 14.1765 17.0172 14.0301 16.9462 13.8588C16.8753 13.6875 16.8567 13.499 16.8929 13.3172C16.929 13.1353 17.0183 12.9683 17.1494 12.8371C17.2806 12.706 17.4476 12.6167 17.6295 12.5806C17.8113 12.5444 17.9998 12.563 18.1711 12.6339C18.3424 12.7049 18.4888 12.825 18.5919 12.9792C18.6949 13.1334 18.7499 13.3146 18.7499 13.5001C18.7499 13.7487 18.6511 13.9872 18.4753 14.163C18.2994 14.3388 18.061 14.4376 17.8124 14.4376Z" fill="url(#paint0_linear_4897_1198)"/>
<path d="M34.44 22.14C32.8 22.14 31.4533 21.7533 30.4 20.98C29.3467 20.1933 28.78 19.0733 28.7 17.62H32.88C32.92 18.1133 33.0667 18.4733 33.32 18.7C33.5733 18.9267 33.9 19.04 34.3 19.04C34.66 19.04 34.9533 18.9533 35.18 18.78C35.42 18.5933 35.54 18.34 35.54 18.02C35.54 17.6067 35.3467 17.2867 34.96 17.06C34.5733 16.8333 33.9467 16.58 33.08 16.3C32.16 15.9933 31.4133 15.7 30.84 15.42C30.28 15.1267 29.7867 14.7067 29.36 14.16C28.9467 13.6 28.74 12.8733 28.74 11.98C28.74 11.0733 28.9667 10.3 29.42 9.66C29.8733 9.00667 30.5 8.51333 31.3 8.18C32.1 7.84667 33.0067 7.68 34.02 7.68C35.66 7.68 36.9667 8.06667 37.94 8.84C38.9267 9.6 39.4533 10.6733 39.52 12.06H35.26C35.2467 11.6333 35.1133 11.3133 34.86 11.1C34.62 10.8867 34.3067 10.78 33.92 10.78C33.6267 10.78 33.3867 10.8667 33.2 11.04C33.0133 11.2133 32.92 11.46 32.92 11.78C32.92 12.0467 33.02 12.28 33.22 12.48C33.4333 12.6667 33.6933 12.8333 34 12.98C34.3067 13.1133 34.76 13.2867 35.36 13.5C36.2533 13.8067 36.9867 14.1133 37.56 14.42C38.1467 14.7133 38.6467 15.1333 39.06 15.68C39.4867 16.2133 39.7 16.8933 39.7 17.72C39.7 18.56 39.4867 19.3133 39.06 19.98C38.6467 20.6467 38.04 21.1733 37.24 21.56C36.4533 21.9467 35.52 22.14 34.44 22.14ZM52.1423 7.9V11.02H48.3823V22H44.4623V11.02H40.7423V7.9H52.1423ZM60.3527 22.14C59.0327 22.14 57.8193 21.8333 56.7127 21.22C55.606 20.5933 54.726 19.7333 54.0727 18.64C53.4327 17.5333 53.1127 16.2867 53.1127 14.9C53.1127 13.5133 53.4327 12.2733 54.0727 11.18C54.726 10.0733 55.606 9.21333 56.7127 8.6C57.8193 7.98667 59.0327 7.68 60.3527 7.68C61.686 7.68 62.8993 7.98667 63.9927 8.6C65.0993 9.21333 65.9727 10.0733 66.6127 11.18C67.2527 12.2733 67.5727 13.5133 67.5727 14.9C67.5727 16.2867 67.2527 17.5333 66.6127 18.64C65.9727 19.7333 65.0993 20.5933 63.9927 21.22C62.886 21.8333 61.6727 22.14 60.3527 22.14ZM60.3527 18.5C61.3527 18.5 62.1393 18.1733 62.7127 17.52C63.2993 16.8667 63.5927 15.9933 63.5927 14.9C63.5927 13.78 63.2993 12.9 62.7127 12.26C62.1393 11.6067 61.3527 11.28 60.3527 11.28C59.3393 11.28 58.546 11.6067 57.9727 12.26C57.3993 12.9 57.1127 13.78 57.1127 14.9C57.1127 16.0067 57.3993 16.8867 57.9727 17.54C58.546 18.18 59.3393 18.5 60.3527 18.5ZM76.4748 22L73.6748 16.8H73.2548V22H69.3348V7.9H75.5148C76.6482 7.9 77.6082 8.1 78.3948 8.5C79.1815 8.88667 79.7748 9.42667 80.1748 10.12C80.5748 10.8 80.7748 11.5667 80.7748 12.42C80.7748 13.38 80.5082 14.2267 79.9748 14.96C79.4548 15.68 78.6882 16.1933 77.6748 16.5L80.8548 22H76.4748ZM73.2548 14.12H75.1948C75.7282 14.12 76.1282 13.9933 76.3948 13.74C76.6615 13.4867 76.7948 13.12 76.7948 12.64C76.7948 12.1867 76.6548 11.8333 76.3748 11.58C76.1082 11.3133 75.7148 11.18 75.1948 11.18H73.2548V14.12ZM86.4775 11.04V13.34H90.9775V16.32H86.4775V18.86H91.5775V22H82.5575V7.9H91.5775V11.04H86.4775Z" fill="#F1F1F2"/>
<defs>
<linearGradient id="paint0_linear_4897_1198" x1="12.0008" y1="6.75" x2="12.0008" y2="23.2524" gradientUnits="userSpaceOnUse">
<stop stop-color="#5B58EB"/>
<stop offset="1" stop-color="#343285"/>
</linearGradient>
</defs>
</svg>
