<svg width="26" height="16" viewBox="0 0 26 16" fill="none" xmlns="http://www.w3.org/2000/svg">
<path d="M16.3082 1.61621H9.69434V13.5015H16.3082V1.61621Z" fill="#FF5F00"/>
<path d="M10.1143 7.55871C10.1132 6.41407 10.3726 5.28419 10.8728 4.25461C11.373 3.22504 12.1008 2.32275 13.0013 1.61606C11.8862 0.739588 10.547 0.194527 9.13684 0.0431699C7.72664 -0.108188 6.30231 0.140261 5.02665 0.760129C3.75098 1.38 2.67545 2.34627 1.92298 3.5485C1.17052 4.75073 0.771484 6.14041 0.771484 7.55871C0.771484 8.977 1.17052 10.3667 1.92298 11.5689C2.67545 12.7711 3.75098 13.7374 5.02665 14.3573C6.30231 14.9772 7.72664 15.2256 9.13684 15.0742C10.547 14.9229 11.8862 14.3778 13.0013 13.5014C12.1008 12.7947 11.373 11.8924 10.8728 10.8628C10.3726 9.83322 10.1132 8.70335 10.1143 7.55871Z" fill="#EB001B"/>
<path d="M25.2294 7.55871C25.2295 8.97698 24.8305 10.3667 24.078 11.5689C23.3256 12.7711 22.2501 13.7374 20.9745 14.3573C19.6988 14.9771 18.2745 15.2256 16.8644 15.0742C15.4542 14.9229 14.115 14.3778 13 13.5014C13.8996 12.794 14.6269 11.8915 15.127 10.8621C15.6271 9.83269 15.887 8.70317 15.887 7.55871C15.887 6.41425 15.6271 5.28472 15.127 4.25531C14.6269 3.2259 13.8996 2.32346 13 1.61605C14.115 0.739585 15.4542 0.194523 16.8644 0.0431679C18.2745 -0.108188 19.6988 0.140272 20.9745 0.760146C22.2501 1.38002 23.3256 2.3463 24.078 3.54853C24.8305 4.75076 25.2295 6.14043 25.2294 7.55871Z" fill="#F79E1B"/>
<path d="M24.5092 12.2426V11.9993H24.6073V11.9497H24.3574V11.9993H24.4556V12.2426H24.5092ZM24.9943 12.2426V11.9492H24.9177L24.8296 12.151L24.7415 11.9492H24.6649V12.2426H24.7189V12.0213L24.8016 12.2121H24.8576L24.9403 12.0208V12.2426H24.9943Z" fill="#F79E1B"/>
</svg>
