<svg width="13" height="15" viewBox="0 0 13 15" fill="none" xmlns="http://www.w3.org/2000/svg">
<path d="M6.68143 5.66272C6.30267 5.62531 5.92161 5.70589 5.59041 5.89342C5.25922 6.08095 4.99409 6.36627 4.83131 6.71031C4.66854 7.05434 4.61608 7.44028 4.68113 7.81529C4.74617 8.19029 4.92553 8.53602 5.19466 8.80515C5.46378 9.07427 5.80951 9.25364 6.18452 9.31868C6.55952 9.38372 6.94546 9.33127 7.2895 9.16849C7.63354 9.00572 7.91885 8.74058 8.10638 8.40939C8.29391 8.0782 8.37449 7.69713 8.33709 7.31837C8.29444 6.89378 8.1063 6.49699 7.80456 6.19524C7.50282 5.8935 7.10602 5.70536 6.68143 5.66272ZM11.1263 7.4998C11.1251 7.70046 11.1104 7.90081 11.0822 8.09947L12.3862 9.12229C12.443 9.16936 12.4813 9.23503 12.4942 9.30765C12.5072 9.38026 12.4939 9.45511 12.4569 9.5189L11.2232 11.6534C11.1858 11.7165 11.1272 11.7645 11.0579 11.7887C10.9885 11.8129 10.9129 11.8119 10.8442 11.7858L9.54912 11.2643C9.4777 11.2358 9.40034 11.2255 9.32397 11.2344C9.24761 11.2432 9.17462 11.2708 9.11155 11.3147C8.9139 11.4508 8.7062 11.5718 8.49025 11.6764C8.42236 11.7094 8.36363 11.7586 8.31926 11.8197C8.27489 11.8808 8.24624 11.9518 8.23584 12.0266L8.04172 13.408C8.02897 13.4809 7.99128 13.5472 7.93509 13.5954C7.87891 13.6437 7.80771 13.6709 7.73367 13.6725H5.26633C5.19351 13.6712 5.1233 13.6452 5.06725 13.5987C5.0112 13.5522 4.97266 13.4879 4.95799 13.4166L4.76416 12.0373C4.75327 11.9617 4.72388 11.89 4.67859 11.8285C4.6333 11.767 4.57352 11.7176 4.50456 11.6848C4.28887 11.5807 4.08187 11.4594 3.88556 11.3222C3.82271 11.2785 3.74996 11.2511 3.67388 11.2425C3.5978 11.2339 3.52076 11.2443 3.44973 11.2729L2.15491 11.7941C2.08629 11.8203 2.01066 11.8213 1.94132 11.7972C1.87199 11.773 1.81341 11.7251 1.7759 11.662L0.542234 9.52755C0.505144 9.46378 0.49189 9.38891 0.504831 9.31629C0.517772 9.24366 0.556069 9.17798 0.612902 9.13094L1.71504 8.26562C1.77542 8.21768 1.82288 8.15543 1.8531 8.08451C1.88332 8.01359 1.89535 7.93624 1.8881 7.85949C1.87772 7.73921 1.87137 7.61922 1.87137 7.49894C1.87137 7.37866 1.87743 7.2604 1.8881 7.14271C1.89456 7.06643 1.88194 6.98974 1.85137 6.91954C1.82081 6.84935 1.77326 6.78787 1.71302 6.74062L0.61146 5.8753C0.555549 5.82802 0.518059 5.76258 0.50556 5.69043C0.493061 5.61828 0.506351 5.54404 0.543099 5.48071L1.77677 3.34624C1.81423 3.28307 1.87279 3.23515 1.94213 3.21093C2.01147 3.18671 2.08713 3.18774 2.15578 3.21385L3.45088 3.73535C3.5223 3.76379 3.59966 3.77406 3.67603 3.76525C3.75239 3.75644 3.82538 3.72882 3.88845 3.68487C4.0861 3.54876 4.2938 3.42785 4.50975 3.32317C4.57764 3.29017 4.63637 3.24096 4.68074 3.17989C4.72511 3.11882 4.75376 3.04776 4.76416 2.973L4.95828 1.59165C4.97103 1.5187 5.00872 1.45244 5.06491 1.40419C5.12109 1.35595 5.19229 1.32872 5.26633 1.32715H7.73367C7.80648 1.32841 7.8767 1.35444 7.93275 1.40094C7.9888 1.44745 8.02734 1.51166 8.04201 1.583L8.23584 2.96233C8.24673 3.03792 8.27612 3.10965 8.32141 3.17114C8.3667 3.23263 8.42648 3.28198 8.49544 3.3148C8.71113 3.41892 8.91813 3.54016 9.11444 3.67737C9.17729 3.7211 9.25004 3.74851 9.32612 3.75712C9.4022 3.76573 9.47924 3.75528 9.55027 3.7267L10.8451 3.20548C10.9137 3.17935 10.9893 3.17828 11.0587 3.20244C11.128 3.22661 11.1866 3.27447 11.2241 3.33759L12.4578 5.47206C12.4949 5.53583 12.5081 5.61069 12.4952 5.68332C12.4822 5.75595 12.4439 5.82163 12.3871 5.86867L11.285 6.73399C11.2243 6.78177 11.1766 6.84395 11.1461 6.91488C11.1156 6.98581 11.1034 7.06324 11.1105 7.14012C11.12 7.25953 11.1263 7.37952 11.1263 7.4998Z" stroke="#82828A" stroke-width="0.923014" stroke-linecap="round" stroke-linejoin="round"/>
</svg>
