<svg width="32" height="11" viewBox="0 0 32 11" fill="none" xmlns="http://www.w3.org/2000/svg">
<path d="M20.8428 0.375C18.5706 0.375 16.5402 1.55269 16.5402 3.72856C16.5402 6.22386 20.1413 6.39619 20.1413 7.64976C20.1413 8.17759 19.5364 8.65009 18.5033 8.65009C17.0371 8.65009 15.9412 7.98988 15.9412 7.98988L15.4723 10.1856C15.4723 10.1856 16.7347 10.7433 18.4108 10.7433C20.8949 10.7433 22.8496 9.50772 22.8496 7.29469C22.8496 4.65794 19.2335 4.4907 19.2335 3.3272C19.2335 2.91367 19.7301 2.46064 20.7602 2.46064C21.9226 2.46064 22.8709 2.9408 22.8709 2.9408L23.3298 0.820149C23.3298 0.820149 22.2979 0.375 20.8428 0.375ZM0.055031 0.535064L0 0.85516C0 0.85516 0.9559 1.03009 1.81682 1.37908C2.92533 1.77922 3.00432 2.01219 3.191 2.73573L5.22535 10.5782H7.9525L12.1538 0.535064H9.43295L6.73336 7.36343L5.63178 1.57537C5.53075 0.912946 5.019 0.535064 4.39262 0.535064H0.055031ZM13.2479 0.535064L11.1135 10.5782H13.708L15.835 0.535032H13.2479V0.535064ZM27.7187 0.535064C27.093 0.535064 26.7615 0.870023 26.5183 1.45534L22.7171 10.5782H25.4379L25.9644 9.05767H29.2791L29.5993 10.5782H32L29.9056 0.535064H27.7187ZM28.0725 3.2484L28.879 7.01707H26.7183L28.0725 3.2484Z" fill="#1434CB"/>
</svg>
