<svg width="20" height="19" viewBox="0 0 20 19" fill="none" xmlns="http://www.w3.org/2000/svg">
<path d="M2.4225 17.9585H17.5775C17.8236 17.9584 18.0656 17.8945 18.2796 17.773C18.4937 17.6515 18.6725 17.4765 18.7988 17.2652C18.925 17.0539 18.9942 16.8134 18.9996 16.5673C19.0051 16.3212 18.9467 16.0779 18.83 15.8612L11.2529 1.7893C10.7154 0.791589 9.28462 0.791589 8.74709 1.7893L1.17003 15.8612C1.05334 16.0779 0.99488 16.3212 1.00035 16.5673C1.00582 16.8134 1.07504 17.0539 1.20125 17.2652C1.32745 17.4765 1.50632 17.6515 1.72038 17.773C1.93444 17.8945 2.17636 17.9584 2.4225 17.9585Z" stroke="#F1F1F2" stroke-width="1.42275" stroke-linecap="round" stroke-linejoin="round"/>
<path d="M9.74529 6.80557L10.0005 12.2298L10.2553 6.80779C10.2568 6.77313 10.2513 6.73851 10.2391 6.70605C10.2268 6.67359 10.2081 6.64397 10.184 6.61901C10.1599 6.59404 10.1309 6.57425 10.0989 6.56084C10.0669 6.54743 10.0325 6.54069 9.99783 6.54103C9.96374 6.54136 9.93006 6.54852 9.89878 6.56209C9.86751 6.57565 9.83927 6.59534 9.81573 6.62C9.79219 6.64466 9.77383 6.67379 9.76173 6.70566C9.74963 6.73753 9.74404 6.7715 9.74529 6.80557Z" stroke="#F1F1F2" stroke-width="1.42275" stroke-linecap="round" stroke-linejoin="round"/>
<path d="M10.0005 15.7784C9.82468 15.7784 9.65276 15.7263 9.50652 15.6286C9.36029 15.5309 9.24632 15.392 9.17902 15.2295C9.11171 15.067 9.0941 14.8882 9.12841 14.7157C9.16273 14.5433 9.24742 14.3848 9.37178 14.2604C9.49614 14.1361 9.65458 14.0514 9.82707 14.0171C9.99956 13.9828 10.1784 14.0004 10.3408 14.0677C10.5033 14.135 10.6422 14.249 10.7399 14.3952C10.8376 14.5414 10.8898 14.7134 10.8898 14.8892C10.8898 15.1251 10.7961 15.3512 10.6293 15.518C10.4626 15.6848 10.2364 15.7784 10.0005 15.7784Z" fill="#F1F1F2"/>
</svg>
